<mxfile host="app.diagrams.net" modified="2023-11-08T15:28:26.531Z" agent="Mozilla/5.0 (Windows NT 10.0; Win64; x64) AppleWebKit/537.36 (KHTML, like Gecko) Chrome/119.0.0.0 Safari/537.36" etag="AgZTsVoSdIsDtrEMiiCI" version="22.0.8" type="github">
  <diagram name="Page-1" id="znwfNLKh7XA3pYcwyvSm">
    <mxGraphModel dx="989" dy="523" grid="1" gridSize="10" guides="1" tooltips="1" connect="1" arrows="1" fold="1" page="1" pageScale="1" pageWidth="827" pageHeight="1169" math="0" shadow="0">
      <root>
        <mxCell id="0" />
        <mxCell id="1" parent="0" />
        <mxCell id="XyYe8zVXVYJfHZWFuTw7-19" style="edgeStyle=orthogonalEdgeStyle;rounded=0;orthogonalLoop=1;jettySize=auto;html=1;exitX=0.5;exitY=1;exitDx=0;exitDy=0;" edge="1" parent="1" source="XyYe8zVXVYJfHZWFuTw7-6" target="XyYe8zVXVYJfHZWFuTw7-8">
          <mxGeometry relative="1" as="geometry">
            <Array as="points">
              <mxPoint x="439" y="280" />
              <mxPoint x="405" y="280" />
            </Array>
          </mxGeometry>
        </mxCell>
        <mxCell id="XyYe8zVXVYJfHZWFuTw7-17" style="edgeStyle=orthogonalEdgeStyle;rounded=0;orthogonalLoop=1;jettySize=auto;html=1;exitX=1;exitY=0.5;exitDx=0;exitDy=0;entryX=0;entryY=0.5;entryDx=0;entryDy=0;" edge="1" parent="1" source="XyYe8zVXVYJfHZWFuTw7-1" target="XyYe8zVXVYJfHZWFuTw7-6">
          <mxGeometry relative="1" as="geometry" />
        </mxCell>
        <mxCell id="XyYe8zVXVYJfHZWFuTw7-1" value="&lt;font style=&quot;font-size: 21px;&quot;&gt;1&lt;/font&gt;" style="ellipse;whiteSpace=wrap;html=1;" vertex="1" parent="1">
          <mxGeometry x="310" y="220" width="40" height="40" as="geometry" />
        </mxCell>
        <mxCell id="XyYe8zVXVYJfHZWFuTw7-2" value="ba/SL" style="text;html=1;align=center;verticalAlign=middle;resizable=0;points=[];autosize=1;strokeColor=none;fillColor=none;" vertex="1" parent="1">
          <mxGeometry x="364" y="160" width="50" height="30" as="geometry" />
        </mxCell>
        <mxCell id="XyYe8zVXVYJfHZWFuTw7-5" value="00/00" style="text;html=1;align=center;verticalAlign=middle;resizable=0;points=[];autosize=1;strokeColor=none;fillColor=none;" vertex="1" parent="1">
          <mxGeometry x="305" y="190" width="50" height="30" as="geometry" />
        </mxCell>
        <mxCell id="XyYe8zVXVYJfHZWFuTw7-20" style="edgeStyle=orthogonalEdgeStyle;rounded=0;orthogonalLoop=1;jettySize=auto;html=1;exitX=0.5;exitY=1;exitDx=0;exitDy=0;entryX=0.5;entryY=0;entryDx=0;entryDy=0;" edge="1" parent="1" source="XyYe8zVXVYJfHZWFuTw7-6" target="XyYe8zVXVYJfHZWFuTw7-12">
          <mxGeometry relative="1" as="geometry">
            <Array as="points">
              <mxPoint x="439" y="280" />
              <mxPoint x="484" y="280" />
            </Array>
          </mxGeometry>
        </mxCell>
        <mxCell id="XyYe8zVXVYJfHZWFuTw7-6" value="&lt;font style=&quot;font-size: 21px;&quot;&gt;2&lt;/font&gt;" style="ellipse;whiteSpace=wrap;html=1;" vertex="1" parent="1">
          <mxGeometry x="419" y="220" width="40" height="40" as="geometry" />
        </mxCell>
        <mxCell id="XyYe8zVXVYJfHZWFuTw7-7" value="01/10" style="text;html=1;align=center;verticalAlign=middle;resizable=0;points=[];autosize=1;strokeColor=none;fillColor=none;" vertex="1" parent="1">
          <mxGeometry x="414" y="190" width="50" height="30" as="geometry" />
        </mxCell>
        <mxCell id="XyYe8zVXVYJfHZWFuTw7-21" style="edgeStyle=orthogonalEdgeStyle;rounded=0;orthogonalLoop=1;jettySize=auto;html=1;exitX=0.5;exitY=1;exitDx=0;exitDy=0;" edge="1" parent="1" source="XyYe8zVXVYJfHZWFuTw7-8" target="XyYe8zVXVYJfHZWFuTw7-10">
          <mxGeometry relative="1" as="geometry" />
        </mxCell>
        <mxCell id="XyYe8zVXVYJfHZWFuTw7-8" value="&lt;font style=&quot;font-size: 21px;&quot;&gt;3&lt;/font&gt;" style="ellipse;whiteSpace=wrap;html=1;" vertex="1" parent="1">
          <mxGeometry x="385" y="330" width="40" height="40" as="geometry" />
        </mxCell>
        <mxCell id="XyYe8zVXVYJfHZWFuTw7-23" style="edgeStyle=orthogonalEdgeStyle;rounded=0;orthogonalLoop=1;jettySize=auto;html=1;exitX=0;exitY=0.5;exitDx=0;exitDy=0;entryX=0.5;entryY=1;entryDx=0;entryDy=0;" edge="1" parent="1" source="XyYe8zVXVYJfHZWFuTw7-10" target="XyYe8zVXVYJfHZWFuTw7-1">
          <mxGeometry relative="1" as="geometry" />
        </mxCell>
        <mxCell id="XyYe8zVXVYJfHZWFuTw7-26" style="edgeStyle=orthogonalEdgeStyle;rounded=0;orthogonalLoop=1;jettySize=auto;html=1;exitX=1;exitY=0;exitDx=0;exitDy=0;entryX=0;entryY=0;entryDx=0;entryDy=0;" edge="1" parent="1" source="XyYe8zVXVYJfHZWFuTw7-10" target="XyYe8zVXVYJfHZWFuTw7-12">
          <mxGeometry relative="1" as="geometry" />
        </mxCell>
        <mxCell id="XyYe8zVXVYJfHZWFuTw7-10" value="&lt;font style=&quot;font-size: 21px;&quot;&gt;4&lt;/font&gt;" style="ellipse;whiteSpace=wrap;html=1;" vertex="1" parent="1">
          <mxGeometry x="385" y="430" width="40" height="40" as="geometry" />
        </mxCell>
        <mxCell id="XyYe8zVXVYJfHZWFuTw7-11" value="10/00" style="text;html=1;align=center;verticalAlign=middle;resizable=0;points=[];autosize=1;strokeColor=none;fillColor=none;" vertex="1" parent="1">
          <mxGeometry x="380" y="400" width="50" height="30" as="geometry" />
        </mxCell>
        <mxCell id="XyYe8zVXVYJfHZWFuTw7-22" style="edgeStyle=orthogonalEdgeStyle;rounded=0;orthogonalLoop=1;jettySize=auto;html=1;exitX=0.5;exitY=1;exitDx=0;exitDy=0;" edge="1" parent="1" source="XyYe8zVXVYJfHZWFuTw7-12" target="XyYe8zVXVYJfHZWFuTw7-15">
          <mxGeometry relative="1" as="geometry" />
        </mxCell>
        <mxCell id="XyYe8zVXVYJfHZWFuTw7-27" style="edgeStyle=orthogonalEdgeStyle;rounded=0;orthogonalLoop=1;jettySize=auto;html=1;exitX=0;exitY=1;exitDx=0;exitDy=0;entryX=1;entryY=1;entryDx=0;entryDy=0;" edge="1" parent="1" source="XyYe8zVXVYJfHZWFuTw7-12" target="XyYe8zVXVYJfHZWFuTw7-10">
          <mxGeometry relative="1" as="geometry" />
        </mxCell>
        <mxCell id="XyYe8zVXVYJfHZWFuTw7-12" value="&lt;font style=&quot;font-size: 21px;&quot;&gt;5&lt;/font&gt;" style="ellipse;whiteSpace=wrap;html=1;" vertex="1" parent="1">
          <mxGeometry x="464" y="430" width="40" height="40" as="geometry" />
        </mxCell>
        <mxCell id="XyYe8zVXVYJfHZWFuTw7-13" value="11/10" style="text;html=1;align=center;verticalAlign=middle;resizable=0;points=[];autosize=1;strokeColor=none;fillColor=none;" vertex="1" parent="1">
          <mxGeometry x="459" y="400" width="50" height="30" as="geometry" />
        </mxCell>
        <mxCell id="XyYe8zVXVYJfHZWFuTw7-24" style="edgeStyle=orthogonalEdgeStyle;rounded=0;orthogonalLoop=1;jettySize=auto;html=1;exitX=0;exitY=0.5;exitDx=0;exitDy=0;entryX=0;entryY=1;entryDx=0;entryDy=0;" edge="1" parent="1" source="XyYe8zVXVYJfHZWFuTw7-15" target="XyYe8zVXVYJfHZWFuTw7-1">
          <mxGeometry relative="1" as="geometry" />
        </mxCell>
        <mxCell id="XyYe8zVXVYJfHZWFuTw7-15" value="&lt;font style=&quot;font-size: 21px;&quot;&gt;6&lt;/font&gt;" style="ellipse;whiteSpace=wrap;html=1;" vertex="1" parent="1">
          <mxGeometry x="464" y="520" width="40" height="40" as="geometry" />
        </mxCell>
        <mxCell id="XyYe8zVXVYJfHZWFuTw7-16" value="01/01" style="text;html=1;align=center;verticalAlign=middle;resizable=0;points=[];autosize=1;strokeColor=none;fillColor=none;" vertex="1" parent="1">
          <mxGeometry x="459" y="490" width="50" height="30" as="geometry" />
        </mxCell>
        <mxCell id="XyYe8zVXVYJfHZWFuTw7-25" value="" style="endArrow=classic;html=1;exitX=0;exitY=0;exitDx=0;exitDy=0;entryX=0;entryY=1;entryDx=0;entryDy=0;curved=1;" edge="1" parent="1" source="XyYe8zVXVYJfHZWFuTw7-8" target="XyYe8zVXVYJfHZWFuTw7-6">
          <mxGeometry width="50" height="50" relative="1" as="geometry">
            <mxPoint x="400" y="430" as="sourcePoint" />
            <mxPoint x="450" y="380" as="targetPoint" />
            <Array as="points">
              <mxPoint x="370" y="270" />
            </Array>
          </mxGeometry>
        </mxCell>
        <mxCell id="XyYe8zVXVYJfHZWFuTw7-9" value="00/10" style="text;html=1;align=center;verticalAlign=middle;resizable=0;points=[];autosize=1;strokeColor=none;fillColor=none;" vertex="1" parent="1">
          <mxGeometry x="380" y="300" width="50" height="30" as="geometry" />
        </mxCell>
      </root>
    </mxGraphModel>
  </diagram>
</mxfile>
